<?xml version="1.0" encoding="UTF-8" standalone="no"?><svg xmlns="http://www.w3.org/2000/svg" xmlns:xlink="http://www.w3.org/1999/xlink" data-name="Layer 1" fill="#9d48e6" height="128.4" preserveAspectRatio="xMidYMid meet" version="1" viewBox="0.0 0.0 128.4 128.4" width="128.4" zoomAndPan="magnify"><g id="change1_1"><circle cx="64.19" cy="64.19" r="64.19"/></g><g id="change2_1"><path d="M150.33,244.88c-1.59,7.22-3.14,14.25-4.75,21.52,8.62.36,16.54,2.43,23.53,7.24,4.36-3.27,8.65-3.54,12.14-.83a9,9,0,0,1-.22,14.53,1.94,1.94,0,0,0-.93,2.24c1.15,8.2-2.21,14.62-8.27,19.78-6.23,5.29-13.65,7.95-21.67,8.84-10.34,1.15-20.27-.28-29.34-5.71-6.14-3.68-10.92-8.6-12.44-15.88-.48-2.31-.14-4.78-.29-7.18a2.58,2.58,0,0,0-.73-1.76c-4.53-3.44-5.5-9-2.23-13.22s8.9-4.65,13.31-1.07c.14.11.3.19.54.35a40.51,40.51,0,0,1,16.17-6.54,42.73,42.73,0,0,1,5.52-.6c1.29-.06,1.78-.53,2.05-1.79,1.53-7.13,3.18-14.24,4.73-21.36.34-1.6,1-2.19,2.71-1.8,4.87,1.14,9.78,2.12,14.66,3.25a1.73,1.73,0,0,0,2.14-.77,6.65,6.65,0,0,1,8.31-2,6.75,6.75,0,0,1,3.66,7.74,6.88,6.88,0,0,1-6.81,5.23,6.8,6.8,0,0,1-6.48-5.6c-.11-.51-.51-1.24-.9-1.33C160,247,155.24,246,150.33,244.88Zm-28.06,44.18A6.83,6.83,0,0,0,129,296a7,7,0,0,0,6.91-6.83,6.88,6.88,0,0,0-6.82-6.85A6.72,6.72,0,0,0,122.27,289.06Zm43.47,0a6.73,6.73,0,0,0-6.81-6.79,6.87,6.87,0,0,0-6.83,6.83A7,7,0,0,0,159,296,6.8,6.8,0,0,0,165.74,289.08ZM144,310c1.36-.07,2.73,0,4.07-.23,3.82-.56,7.51-1.5,10.59-4,.92-.75,1.42-1.65.53-2.7s-1.64-.51-2.61,0a20.44,20.44,0,0,1-5.6,2.64c-7,1.47-13.84,1.71-20-2.88a2.08,2.08,0,0,0-2,.23,2.32,2.32,0,0,0,.08,2.21,11.63,11.63,0,0,0,3.31,2.3A26.08,26.08,0,0,0,144,310Z" fill="#ffffff" transform="translate(-79.81 -215.81)"/></g><g id="change1_2"><path d="M122.27,289.06a6.72,6.72,0,0,1,6.83-6.77,6.88,6.88,0,0,1,6.82,6.85A7,7,0,0,1,129,296,6.83,6.83,0,0,1,122.27,289.06Z" transform="translate(-79.81 -215.81)"/></g><g id="change1_3"><path d="M165.74,289.08A6.8,6.8,0,0,1,159,296a7,7,0,0,1-6.89-6.85,6.87,6.87,0,0,1,6.83-6.83A6.73,6.73,0,0,1,165.74,289.08Z" transform="translate(-79.81 -215.81)"/></g><g id="change1_4"><path d="M144,310a26.08,26.08,0,0,1-11.68-2.4,11.63,11.63,0,0,1-3.31-2.3,2.32,2.32,0,0,1-.08-2.21,2.08,2.08,0,0,1,2-.23c6.17,4.59,13,4.35,20,2.88a20.44,20.44,0,0,0,5.6-2.64c1-.55,1.79-1,2.61,0s.39,2-.53,2.7c-3.08,2.51-6.77,3.45-10.59,4C146.72,309.92,145.35,309.89,144,310Z" transform="translate(-79.81 -215.81)"/></g></svg>