<?xml version="1.0" encoding="UTF-8" standalone="no"?><svg xmlns="http://www.w3.org/2000/svg" xmlns:xlink="http://www.w3.org/1999/xlink" fill="#000000" height="463.8" preserveAspectRatio="xMidYMid meet" version="1" viewBox="-0.1 -0.1 463.8 463.8" width="463.8" zoomAndPan="magnify"><g><g id="change1_1"><path d="M235.5,190.4l-8.1-147.5c-0.2-3.5-4.5-5.2-7-2.7l-11.7,11.4c-0.8,0.8-1.3,2-1.2,3.2l7.3,131.5 c0.1,2.6-2.1,4.6-4.6,4.3L90.6,175.9c-1.3-0.2-2.5,0.3-3.4,1.2l-61.7,62c-2.4,2.4-1,6.6,2.4,7l188,23.6c2,0.2,3.5,1.9,3.6,3.9 l8.6,155.1c0.2,3.5,4.4,5.2,7,2.7l11.7-11.2c0.9-0.8,1.3-2,1.3-3.2l-7.7-139.3c-0.1-2.6,2.1-4.6,4.6-4.3l125.6,15.8 c1.2,0.2,2.5-0.3,3.4-1.1l65.4-62.2c2.5-2.4,1.1-6.6-2.3-7.1l-197.8-24.5C237.1,194,235.6,192.4,235.5,190.4z M61.1,226.8 l32.1-32.4c0.9-0.9,2.2-1.3,3.4-1.2L400.1,231c3.4,0.4,4.8,4.7,2.3,7.1l-34.3,32.6c-0.9,0.8-2.1,1.3-3.3,1.1L63.5,233.8 C60.1,233.4,58.7,229.2,61.1,226.8z" fill="#1d93d2"/></g><circle cx="231.8" cy="231.8" fill="none" r="222.7" stroke="#1d93d2" stroke-miterlimit="10" stroke-width="18.351"/></g></svg>