<?xml version="1.0" encoding="UTF-8"?>
<!-- Generator: visioncortex VTracer 0.6.2 -->
<svg version="1.1" xmlns="http://www.w3.org/2000/svg" width="1280" height="960">
<path d="M0 0 C422.4 0 844.8 0 1280 0 C1280 316.8 1280 633.6 1280 960 C857.6 960 435.2 960 0 960 C0 643.2 0 326.4 0 0 Z " fill="#F9FAFB" transform="translate(0,0)"/>
<path d="M0 0 C1.29517044 -0.0159874 2.59034088 -0.03197479 3.92475891 -0.04844666 C5.3315898 -0.05482443 6.73842546 -0.06021683 8.14526367 -0.06469727 C9.59868966 -0.0736727 11.05211475 -0.0827947 12.50553894 -0.09205627 C15.54928831 -0.10851963 18.59292805 -0.11624138 21.63671875 -0.11914062 C25.52050748 -0.12451857 29.40325324 -0.16218384 33.28674793 -0.20788479 C36.28866761 -0.23775674 39.29033931 -0.24486637 42.29239464 -0.24586678 C43.72324075 -0.25004988 45.15408892 -0.26240699 46.58478737 -0.28338432 C54.65116032 -0.39223456 61.38024791 -0.47897151 67.50073242 5.30639648 C71.46954243 10.39461444 72.62267869 14.04521367 72.66186523 20.41088867 C72.67147278 21.66939636 72.68108032 22.92790405 72.690979 24.22454834 C72.69582798 25.60078754 72.70010657 26.97702885 72.70385742 28.35327148 C72.7096125 29.7671102 72.71537019 31.1809489 72.72113037 32.5947876 C72.73163356 35.56050987 72.73748022 38.52620511 72.7409668 41.49194336 C72.74644058 45.2791944 72.77044716 49.06608393 72.79893875 52.85322189 C72.81763135 55.77529925 72.8227743 58.69729083 72.82430267 61.61942291 C72.82731641 63.01478291 72.83530148 64.41014186 72.84848785 65.80544281 C72.98235743 81.06376054 72.98235743 81.06376054 68.07104492 87.04858398 C62.85072062 91.14018952 58.64685076 91.42930955 52.16918945 91.45166016 C50.91083282 91.45804001 49.6524762 91.46441986 48.35598755 91.47099304 C46.99017373 91.47252197 45.6243594 91.47363579 44.25854492 91.47436523 C42.84756436 91.47758172 41.43658412 91.48094609 40.02560425 91.48445129 C37.07183052 91.49042842 34.11808599 91.49229265 31.16430664 91.49169922 C27.39288758 91.49159767 23.62165709 91.50524836 19.85028267 91.52247143 C16.93678947 91.53362938 14.02334132 91.53561726 11.10982895 91.53508949 C9.72006455 91.53626395 8.33029877 91.5406555 6.94055557 91.54842186 C-9.04793543 91.62940851 -9.04793543 91.62940851 -15.74926758 87.11889648 C-22.50732091 80.20725103 -21.95412531 72.79411715 -21.93286133 63.59545898 C-21.93743099 62.25938656 -21.94273887 60.92331649 -21.94874573 59.58724976 C-21.95764825 56.79496682 -21.95528756 54.0029703 -21.9453125 51.21069336 C-21.9338385 47.65446386 -21.95402316 44.09922973 -21.98322964 40.54313087 C-22.00168985 37.78563282 -22.00127967 35.02836886 -21.99559212 32.27082443 C-21.99536673 30.32949356 -22.01217627 28.38818437 -22.02940369 26.44692993 C-21.96917308 18.75519357 -21.42341351 11.69217421 -16.08738708 5.72842407 C-11.11037519 1.29325204 -6.53195627 0.06111119 0 0 Z " fill="#050608" transform="translate(593.499267578125,432.693603515625)"/>
<path d="M0 0 C1.27852844 -0.00960754 2.55705688 -0.01921509 3.87432861 -0.02911377 C5.27266257 -0.03396271 6.6709986 -0.0382413 8.06933594 -0.04199219 C9.5055949 -0.04774712 10.94185385 -0.05350481 12.37811279 -0.05926514 C15.39091346 -0.06976868 18.40368751 -0.07561512 21.41650391 -0.07910156 C25.26428659 -0.08457566 29.11171352 -0.10858279 32.95938492 -0.13707352 C35.92778527 -0.15576397 38.89610116 -0.16090895 41.86455536 -0.16243744 C43.28224374 -0.16545162 44.69993107 -0.1734382 46.11756134 -0.18662262 C61.98908693 -0.32365948 61.98908693 -0.32365948 67.52485657 4.73345947 C73.63976731 12.00934613 72.57915335 21.12728494 72.42480469 30.06738281 C72.41613898 31.80089268 72.40999968 33.53441684 72.40626526 35.26794434 C72.38912353 39.80536977 72.33510589 44.34164614 72.27398682 48.87866211 C72.23018027 52.59756906 72.21279881 56.31638438 72.19671535 60.03549957 C72.17716695 64.4628603 72.14659937 68.89011401 72.11230469 73.31738281 C72.10587889 74.16476517 72.09945309 75.01214752 72.09283257 75.88520813 C72.07195375 78.26700942 72.04366738 80.64858781 72.01245117 83.03027344 C72.00662018 83.74189636 72.00078918 84.45351929 71.99478149 85.18670654 C71.91906486 90.04577889 71.91906486 90.04577889 70.80371094 91.16113281 C68.51465014 91.28700188 66.22119976 91.33691252 63.92871094 91.34863281 C62.67316406 91.3628125 61.41761719 91.37699219 60.12402344 91.39160156 C56.80371094 91.16113281 56.80371094 91.16113281 53.80371094 89.16113281 C53.46596246 86.6174348 53.31466988 84.2977983 53.29199219 81.74707031 C53.27535522 81.10036377 53.25871826 80.45365723 53.24157715 79.78735352 C53.18372583 77.37061105 53.15151237 74.95330983 53.11621094 72.53613281 C53.01308594 67.13238281 52.90996094 61.72863281 52.80371094 56.16113281 C34.98371094 56.49113281 17.16371094 56.82113281 -1.19628906 57.16113281 C-3.27331127 61.31517722 -3.47928178 63.31417352 -3.57519531 67.86035156 C-3.60935547 69.15134766 -3.64351562 70.44234375 -3.67871094 71.77246094 C-3.70605874 73.13117187 -3.73274351 74.48989629 -3.75878906 75.84863281 C-3.81652739 78.51942467 -3.88199346 81.18978091 -3.95019531 83.86035156 C-3.97412354 85.04459717 -3.99805176 86.22884277 -4.02270508 87.44897461 C-4.19628906 90.16113281 -4.19628906 90.16113281 -5.19628906 91.16113281 C-7.50622289 91.28670444 -9.82047443 91.3368901 -12.13378906 91.34863281 C-13.4009375 91.3628125 -14.66808594 91.37699219 -15.97363281 91.39160156 C-19.19628906 91.16113281 -19.19628906 91.16113281 -21.19628906 89.16113281 C-21.4637146 86.17185974 -21.4637146 86.17185974 -21.48681641 82.28393555 C-21.49353363 81.57633591 -21.50025085 80.86873627 -21.50717163 80.13969421 C-21.52622553 77.79130082 -21.53008065 75.44319255 -21.53222656 73.09472656 C-21.53865354 71.46004621 -21.54538183 69.82536701 -21.55239868 68.19068909 C-21.56439284 64.75657489 -21.56807774 61.3225614 -21.56689453 57.88842773 C-21.56669217 53.50598099 -21.59389803 49.12418881 -21.62843895 44.74189663 C-21.65078437 41.36077466 -21.65472961 37.97980768 -21.65367508 34.59861946 C-21.65602326 32.98441391 -21.66480236 31.37020357 -21.68033981 29.75607109 C-21.8264753 12.99314106 -21.8264753 12.99314106 -17.19628906 6.16113281 C-15.16113281 4.22363281 -15.16113281 4.22363281 -13.13378906 3.16113281 C-12.4621875 2.78988281 -11.79058594 2.41863281 -11.09863281 2.03613281 C-7.24645795 0.26429058 -4.20166211 0.02545734 0 0 Z " fill="#050608" transform="translate(1058.1962890625,432.8388671875)"/>
<path d="M0 0 C1.85761711 -0.01441132 1.85761711 -0.01441132 3.75276184 -0.02911377 C5.10169286 -0.03396242 6.45062603 -0.03824108 7.79956055 -0.04199219 C9.18954977 -0.04774923 10.57953898 -0.05350689 11.9695282 -0.05926514 C14.88219572 -0.06975737 17.79483579 -0.07561152 20.70751953 -0.07910156 C24.42636321 -0.08458 28.14483961 -0.10860121 31.86356831 -0.13707352 C34.73503149 -0.15576581 37.60640739 -0.160909 40.47792625 -0.16243744 C41.84816684 -0.16545009 43.2184064 -0.1734314 44.58858681 -0.18662262 C59.99416006 -0.32434184 59.99416006 -0.32434184 65.8347168 4.92285156 C66.53467773 5.87611328 66.53467773 5.87611328 67.2487793 6.84863281 C67.73088867 7.47125 68.21299805 8.09386719 68.7097168 8.73535156 C71.30426003 14.14210104 70.99186933 20.6867175 70.91137695 26.57104492 C70.89937508 27.60914307 70.89937508 27.60914307 70.88713074 28.66821289 C70.85954934 30.92507894 70.82397543 33.18173252 70.7878418 35.43847656 C70.76604447 37.01647987 70.74459619 38.59448804 70.72348022 40.17250061 C70.67819704 43.46312688 70.62898819 46.75366399 70.5769043 50.04418945 C70.51029789 54.26996206 70.4531742 58.49580083 70.39887428 62.7217474 C70.3561546 65.97216891 70.30870769 69.22250783 70.25977707 72.47284126 C70.23683571 74.03221178 70.21533157 75.5916041 70.19527054 77.15101433 C70.16662082 79.31977598 70.13167583 81.48834422 70.0949707 83.65698242 C70.07641022 84.89193954 70.05784973 86.12689667 70.03872681 87.39927673 C69.8737793 90.16113281 69.8737793 90.16113281 68.8737793 91.16113281 C66.94046121 91.3132244 65.00036646 91.38299612 63.0612793 91.41113281 C62.00295898 91.43691406 60.94463867 91.46269531 59.85424805 91.48925781 C56.38704833 91.10754775 55.27275817 90.66827923 52.8737793 88.16113281 C52.44722375 85.59970107 52.26868961 83.43491475 52.2644043 80.86816406 C52.23378906 79.57628174 52.20317383 78.28439941 52.17163086 76.95336914 C52.14794434 74.48839966 52.14794434 74.48839966 52.1237793 71.97363281 C52.0412793 66.75550781 51.9587793 61.53738281 51.8737793 56.16113281 C24.6487793 56.65613281 24.6487793 56.65613281 -3.1262207 57.16113281 C-3.4562207 68.05113281 -3.7862207 78.94113281 -4.1262207 90.16113281 C-6.81728977 91.50666735 -8.99787493 91.36707395 -12.0012207 91.41113281 C-13.05051758 91.43691406 -14.09981445 91.46269531 -15.1809082 91.48925781 C-18.60598065 91.10768475 -19.7361179 90.61581859 -22.1262207 88.16113281 C-22.63415527 85.17222595 -22.63415527 85.17222595 -22.64379883 81.46166992 C-22.65080811 80.78479126 -22.65781738 80.1079126 -22.66503906 79.41052246 C-22.68266142 77.16942439 -22.67097361 74.92958789 -22.6574707 72.68847656 C-22.66016663 71.12488056 -22.66404989 69.5612862 -22.66906738 67.99769592 C-22.67496994 64.71485488 -22.66638377 61.4324487 -22.64770508 58.1496582 C-22.62504627 53.96566841 -22.63794932 49.78271241 -22.66199493 45.59876156 C-22.67654589 42.3651013 -22.67180251 39.13168019 -22.66148376 35.89801216 C-22.65883515 34.35722288 -22.66201981 32.81641111 -22.67140198 31.27564812 C-22.75140559 14.42655571 -22.75140559 14.42655571 -18.1262207 7.16113281 C-12.42676774 1.62057866 -7.87736303 0.04938215 0 0 Z " fill="#050608" transform="translate(820.126220703125,432.8388671875)"/>
<path d="M0 0 C1.22096375 0.00007553 2.44192749 0.00015106 3.69989014 0.00022888 C5.67037323 0.00797081 5.67037323 0.00797081 7.68066406 0.01586914 C9.04258167 0.01773518 10.40449994 0.01915821 11.76641846 0.02015686 C15.34370795 0.02396736 18.92095658 0.03378507 22.49822998 0.04486084 C26.15148363 0.05510655 29.80474392 0.05966124 33.45800781 0.06469727 C40.62078682 0.0754087 47.78353221 0.09246745 54.94628906 0.11352539 C55.35424533 2.43497477 55.68318105 4.77123384 55.94628906 7.11352539 C54.46972656 9.18774414 54.46972656 9.18774414 52.32128906 10.80102539 C51.28101563 11.61120117 51.28101563 11.61120117 50.21972656 12.43774414 C49.46949219 12.99075195 48.71925781 13.54375977 47.94628906 14.11352539 C46.97296631 15.13978027 46.97296631 15.13978027 45.97998047 16.18676758 C41.47168465 19.05007601 37.36984514 18.65991682 32.13378906 18.61743164 C30.56407349 18.63156349 30.56407349 18.63156349 28.96264648 18.64598083 C25.62366095 18.67462836 22.28538758 18.67770889 18.94628906 18.67602539 C15.60729465 18.67963277 12.26881789 18.68916192 8.92993164 18.71678162 C6.85431464 18.7335704 4.77852706 18.73644548 2.70288086 18.72377014 C-4.20243181 18.70944765 -4.20243181 18.70944765 -10.05371094 22.11352539 C-11.71730175 25.4360665 -11.71730175 25.4360665 -12.05371094 29.11352539 C-10.87226176 32.06714834 -9.9393365 33.57226514 -7.21989441 35.23428345 C-4.81786512 36.20925391 -3.10445184 36.36473123 -0.51977539 36.36889648 C0.37182785 36.37585541 1.26343109 36.38281433 2.18205261 36.38998413 C3.13936783 36.38898712 4.09668304 36.38799011 5.08300781 36.38696289 C7.12533091 36.40726145 9.16764857 36.42811241 11.20996094 36.44946289 C14.41793395 36.47200077 17.62569186 36.48851056 20.83374023 36.49438477 C23.93805537 36.50396229 27.04141012 36.53781246 30.14550781 36.57446289 C31.09270187 36.56941742 32.03989594 36.56437195 33.01579285 36.55917358 C40.33749978 36.66619743 46.43467358 38.29093601 52.21582031 42.93774414 C58.85471366 50.95483813 61.63566162 57.47247029 61.26660156 68.02758789 C60.56832483 74.75488813 58.14737679 80.57858683 52.94628906 85.11352539 C46.24318833 89.62288407 40.70613502 91.2308455 32.62719727 91.25878906 C31.37272293 91.26516891 30.1182486 91.27154877 28.82575989 91.27812195 C27.46619709 91.27965004 26.10663377 91.28076431 24.74707031 91.28149414 C23.34653184 91.28470906 21.9459937 91.28807331 20.54545593 91.2915802 C17.61777975 91.29755377 14.69013302 91.29942171 11.76245117 91.29882812 C8.0062338 91.29872611 4.25020378 91.31242655 0.49403095 91.32960033 C-2.39438247 91.34069653 -5.28275007 91.34274814 -8.17118263 91.3422184 C-9.55670638 91.34340026 -10.94223124 91.34783354 -12.32773399 91.35555077 C-14.25939894 91.36531056 -16.19111903 91.3612188 -18.12280273 91.35644531 C-19.22246872 91.35787033 -20.3221347 91.35929535 -21.4551239 91.36076355 C-24.05371094 91.11352539 -24.05371094 91.11352539 -26.05371094 89.11352539 C-25.64957728 85.07874776 -23.4800415 83.43372164 -20.44238281 80.90063477 C-19.83974609 80.41401367 -19.23710937 79.92739258 -18.61621094 79.42602539 C-18.01744141 78.92780273 -17.41867187 78.42958008 -16.80175781 77.91625977 C-12.70755352 74.53728041 -10.63402072 72.99829859 -5.3762207 72.93994141 C-4.40503799 72.92645157 -3.43385529 72.91296173 -2.4332428 72.89906311 C-1.38116135 72.88862473 -0.3290799 72.87818634 0.75488281 72.86743164 C2.96777748 72.83449935 5.18066801 72.8012876 7.39355469 72.76782227 C10.8939331 72.72034366 14.39429396 72.67590778 17.89477539 72.63671875 C21.26498953 72.5970915 24.63485782 72.54552904 28.00488281 72.49243164 C29.05494003 72.48401749 30.10499725 72.47560333 31.18687439 72.4669342 C32.16120926 72.45029221 33.13554413 72.43365021 34.1394043 72.41650391 C34.99718979 72.40619644 35.85497528 72.39588898 36.73875427 72.38526917 C39.23427171 72.24573382 39.23427171 72.24573382 41.94628906 70.11352539 C42.81592795 66.56807453 43.13328996 63.93632935 42.32128906 60.36352539 C40.49128948 57.36898061 39.16700281 56.57953039 35.94628906 55.11352539 C32.59620311 54.677639 29.27012911 54.69635258 25.89550781 54.70727539 C24.92273392 54.69643921 23.94996002 54.68560303 22.94770813 54.67443848 C19.84300079 54.64022597 16.73865993 54.6245996 13.63378906 54.61352539 C9.55401254 54.59889912 5.47504637 54.56508558 1.39550781 54.51977539 C0.4681633 54.52279663 -0.45918121 54.52581787 -1.41462708 54.52893066 C-10.6878662 54.42288742 -17.25710707 51.84634891 -24.06542969 45.41430664 C-28.97379985 39.73448341 -30.78657847 33.05807929 -30.43652344 25.62524414 C-29.28855684 18.09317758 -25.96182945 11.03278508 -20.05371094 6.11352539 C-13.40907432 2.06576416 -7.77758243 -0.01606939 0 0 Z " fill="#050608" transform="translate(484.0537109375,432.886474609375)"/>
<path d="M0 0 C3.84591645 2.73308006 6.28400006 6.18014376 9 10 C10.44738835 11.77979037 11.9058863 13.55059997 13.375 15.3125 C14.48875 16.68728516 14.48875 16.68728516 15.625 18.08984375 C18.17489009 21.21429789 20.76623544 24.29972804 23.375 27.375 C23.83487305 27.91729248 24.29474609 28.45958496 24.76855469 29.01831055 C26.17832712 30.67947768 27.58899504 32.33987969 29 34 C30.8761364 36.20737151 32.75128789 38.41557018 34.625 40.625 C35.07939453 41.16044434 35.53378906 41.69588867 36.00195312 42.24755859 C39.71209157 46.63166104 43.3368176 51.08165845 46.9296875 55.5625 C51.21768818 60.8210196 51.21768818 60.8210196 57 64 C56.99555878 63.26972595 56.99111755 62.5394519 56.98654175 61.78704834 C56.94644914 54.90116012 56.91600749 48.01528938 56.89637566 41.12931442 C56.88594339 37.58925136 56.87179446 34.04928484 56.84912109 30.50927734 C56.82321149 26.43846719 56.81352262 22.36775828 56.8046875 18.296875 C56.79436493 17.02696716 56.78404236 15.75705933 56.77340698 14.44866943 C56.77325592 13.26774719 56.77310486 12.08682495 56.77294922 10.87011719 C56.768508 9.83087097 56.76406677 8.79162476 56.75949097 7.72088623 C57.00497076 4.94376567 57.48053428 3.3194196 59 1 C61.72023078 -0.36011539 63.9661881 -0.2062431 67 -0.25 C68.0725 -0.27578125 69.145 -0.3015625 70.25 -0.328125 C71.61125 -0.16570312 71.61125 -0.16570312 73 0 C75.54492538 3.81738807 75.27393678 6.88904842 75.24291992 11.31103516 C75.24481827 12.15842758 75.24671661 13.00582001 75.24867249 13.87889099 C75.25238006 16.68237532 75.2416778 19.48560116 75.23046875 22.2890625 C75.22927701 24.23294036 75.22882377 26.17681881 75.2290802 28.12069702 C75.22751546 32.19443364 75.21922527 36.26808236 75.20581055 40.34179688 C75.18879817 45.57559888 75.18499684 50.80930445 75.18575573 56.04313087 C75.18548446 60.05613127 75.18001059 64.06911039 75.17275429 68.08210373 C75.16956233 70.01270766 75.16759899 71.94331401 75.16686058 73.87392044 C75.16470385 76.56524051 75.15597484 79.25645611 75.14526367 81.94775391 C75.14571686 82.75295975 75.14617004 83.55816559 75.14663696 84.38777161 C75.1144757 89.8855243 75.1144757 89.8855243 74 91 C61.82364944 92.35122175 61.82364944 92.35122175 56.54296875 89.82421875 C54.43392216 88.02444172 52.74169072 86.15834518 51 84 C50.29875 83.16597656 49.5975 82.33195313 48.875 81.47265625 C47.34938087 79.62655116 45.8420257 77.76522821 44.3515625 75.890625 C41.99464163 72.9934133 39.53259832 70.24430159 37 67.5 C32.90771925 63.05406536 29.07756886 58.4559628 25.28515625 53.75390625 C22.13202901 49.95398368 18.78204849 46.35045429 15.4296875 42.7265625 C12.31557804 39.23195092 9.4867285 35.55316581 6.69140625 31.80078125 C6.13324219 31.20652344 5.57507813 30.61226563 5 30 C4.01 30 3.02 30 2 30 C0.67789941 32.64420117 0.83877878 34.68199615 0.79467773 37.64306641 C0.77473251 38.82413971 0.75478729 40.00521301 0.73423767 41.22207642 C0.70916893 43.14242203 0.70916893 43.14242203 0.68359375 45.1015625 C0.66281265 46.40829926 0.64203156 47.71503601 0.62062073 49.06137085 C0.56540706 52.536689 0.51599475 56.01206653 0.46777344 59.48748779 C0.41755323 63.033379 0.36186988 66.5791839 0.30664062 70.125 C0.19906772 77.0832585 0.09762083 84.04159496 0 91 C-2.45862401 91.05383848 -4.9160755 91.09359038 -7.375 91.125 C-8.07367187 91.14175781 -8.77234375 91.15851563 -9.4921875 91.17578125 C-11.32897486 91.19344267 -13.16601963 91.10303261 -15 91 C-17.54811553 88.45188447 -17.24806378 86.80220934 -17.28216553 83.32681274 C-17.27968811 82.53455292 -17.27721069 81.74229309 -17.2746582 80.92602539 C-17.27976913 80.09174515 -17.28488007 79.2574649 -17.29014587 78.39790344 C-17.30408316 75.63108206 -17.30308199 72.86450863 -17.30078125 70.09765625 C-17.30466597 68.17955939 -17.30900017 66.2614634 -17.31376648 64.34336853 C-17.32123763 60.31913466 -17.32093099 56.29498851 -17.31567383 52.27075195 C-17.30987862 47.10762619 -17.32680711 41.94485908 -17.3500185 36.78179264 C-17.36473356 32.81930941 -17.36563058 28.85691298 -17.36250877 24.89440727 C-17.36302313 22.99056729 -17.36828219 21.0867226 -17.37832069 19.18290901 C-17.39062448 16.52282376 -17.38393008 13.86344269 -17.37231445 11.20336914 C-17.37995819 10.41313354 -17.38760193 9.62289795 -17.39547729 8.80871582 C-17.34419415 3.50917542 -17.34419415 3.50917542 -15.66667175 1.02757263 C-11.09202318 -1.79288896 -5.03127128 -1.02275023 0 0 Z " fill="#050608" transform="translate(935,433)"/>
<path d="M0 0 C0.86890869 -0.00428513 1.73781738 -0.00857025 2.63305664 -0.01298523 C4.46532319 -0.01871363 6.29761247 -0.01923979 8.12988281 -0.01489258 C10.92812933 -0.01172934 13.72532129 -0.03522122 16.5234375 -0.06054688 C18.30729034 -0.06281975 20.09114601 -0.06352342 21.875 -0.0625 C23.12518921 -0.07631462 23.12518921 -0.07631462 24.40063477 -0.09040833 C29.06839741 -0.05333833 32.17764838 0.23897759 35.9375 3.30078125 C38.47083253 6.18112585 39.31584944 7.97733181 39.35742188 11.80639648 C39.37333374 12.69088974 39.38924561 13.575383 39.40563965 14.48667908 C39.40584106 15.43466873 39.40604248 16.38265839 39.40625 17.359375 C39.41767029 18.8313308 39.41767029 18.8313308 39.42932129 20.33302307 C39.440118 22.40664121 39.44297714 24.48031371 39.43847656 26.55395508 C39.43750446 29.72374301 39.47912691 32.89110855 39.5234375 36.06054688 C39.52864479 38.07681787 39.53133269 40.09309728 39.53125 42.109375 C39.5558429 43.52832314 39.5558429 43.52832314 39.58093262 44.97593689 C39.53607077 49.25531522 39.31045599 51.68979796 37.04663086 55.3984375 C32.5624727 58.14210145 28.76365197 58.00091705 23.59765625 57.9296875 C22.09808632 57.93330544 22.09808632 57.93330544 20.56822205 57.93699646 C18.45763171 57.93601861 16.34701553 57.92263981 14.23657227 57.89770508 C11.01424522 57.86343276 7.79466705 57.87704118 4.57226562 57.89648438 C2.51821754 57.88958457 0.46417652 57.87991098 -1.58984375 57.8671875 C-3.02915504 57.8746273 -3.02915504 57.8746273 -4.49754333 57.88221741 C-10.30095976 57.78059356 -13.630776 57.14658128 -18.0625 53.30078125 C-19.19426264 51.03725597 -19.21174639 49.73647118 -19.25537109 47.22167969 C-19.27143402 46.38030457 -19.28749695 45.53892944 -19.30404663 44.67205811 C-19.34855581 40.81735047 -19.38957401 36.96281486 -19.41259766 33.10791016 C-19.42914183 31.07686899 -19.4564115 29.04588568 -19.49462891 27.01513672 C-19.54950118 24.0840032 -19.5712887 21.1542348 -19.5859375 18.22265625 C-19.60860687 17.31932556 -19.63127625 16.41599487 -19.65463257 15.48529053 C-19.6405147 11.25501928 -19.48192646 8.22711037 -16.84228516 4.80566406 C-11.50262808 -0.00593629 -6.88425152 -0.00752809 0 0 Z " fill="#FAFBFC" transform="translate(609.0625,448.69921875)"/>
<path d="M0 0 C1.06347656 -0.00773437 2.12695312 -0.01546875 3.22265625 -0.0234375 C4.11855469 0.10804688 5.01445313 0.23953125 5.9375 0.375 C8.37961764 4.03817646 8.20449535 5.84787005 8.24047852 10.21728516 C8.24891785 10.90862045 8.25735718 11.59995575 8.26605225 12.3122406 C8.29183301 14.59618821 8.30396906 16.88000669 8.31640625 19.1640625 C8.33257753 20.74922718 8.34975714 22.33438186 8.36790466 23.91952515 C8.41360138 28.09150589 8.4484058 32.26349984 8.48010254 36.43560791 C8.53197684 43.12118679 8.59696159 49.80661938 8.66831779 56.49201584 C8.69121996 58.83252405 8.70744444 61.17301343 8.72303772 63.51358032 C8.73643858 64.93955698 8.75005288 66.36553166 8.76391602 67.79150391 C8.77342789 69.04154205 8.78293976 70.2915802 8.79273987 71.57949829 C8.61979464 74.28049242 8.61979464 74.28049242 9.9375 75.375 C11.83910112 75.49850658 13.7452239 75.55293443 15.65063477 75.58032227 C16.8718251 75.60026749 18.09301544 75.62021271 19.35121155 75.64076233 C20.69377513 75.65774791 22.03634007 75.67462667 23.37890625 75.69140625 C24.74511861 75.71196947 26.11132451 75.73296577 27.4775238 75.75437927 C31.07944524 75.80966535 34.68142471 75.85904563 38.28344727 75.90722656 C41.95659572 75.95739403 45.62965955 76.01310485 49.30273438 76.06835938 C56.51425132 76.17602082 63.72583847 76.27744787 70.9375 76.375 C71.5975 78.025 72.2575 79.675 72.9375 81.375 C71.72325607 82.86644105 70.49043955 84.34277403 69.25 85.8125 C68.56550781 86.63621094 67.88101563 87.45992187 67.17578125 88.30859375 C63.21547154 91.96479591 58.5490071 91.50309527 53.35888672 91.52026367 C52.04757782 91.52664352 50.73626892 91.53302338 49.38522339 91.53959656 C47.96254514 91.54112482 46.53986639 91.542239 45.1171875 91.54296875 C43.65178393 91.54618373 42.18638068 91.54954799 40.72097778 91.55305481 C37.65626277 91.55903029 34.5915759 91.56089617 31.52685547 91.56030273 C27.59810543 91.56020082 23.66953494 91.57388998 19.74082756 91.59107494 C16.71769376 91.60218226 13.69460369 91.60422239 10.67145157 91.60369301 C9.22255963 91.60487362 7.77366659 91.60929993 6.32479477 91.61702538 C4.30232821 91.62680567 2.2798088 91.62268806 0.25732422 91.61791992 C-0.89341583 91.61934494 -2.04415588 91.62076996 -3.22976685 91.62223816 C-6.0625 91.375 -6.0625 91.375 -9.0625 89.375 C-9.36469146 86.6103343 -9.47189717 84.06860511 -9.45068359 81.30102539 C-9.45594055 80.46674515 -9.46119751 79.6324649 -9.46661377 78.77290344 C-9.47985316 76.00596575 -9.47106111 73.23960013 -9.4609375 70.47265625 C-9.4629573 68.55455922 -9.46586794 66.63646293 -9.46963501 64.71836853 C-9.47406386 60.69408879 -9.46761002 56.67000854 -9.45361328 52.64575195 C-9.43653259 47.48260371 -9.44635198 42.31992364 -9.46433067 37.15679264 C-9.4751632 33.19429487 -9.47172441 29.23190836 -9.4639473 25.26940727 C-9.46194322 23.36557396 -9.46441181 21.46173061 -9.47138596 19.55790901 C-9.47899044 16.8977897 -9.46741002 14.23843165 -9.45068359 11.57836914 C-9.45675629 10.78813354 -9.46282898 9.99789795 -9.46908569 9.18371582 C-9.4072347 3.88400628 -9.4072347 3.88400628 -7.71621704 1.38719177 C-5.1656851 -0.17391414 -2.95589736 -0.02154968 0 0 Z " fill="#050608" transform="translate(703.0625,432.625)"/>
<path d="M0 0 C0.93549683 -0.00761353 1.87099365 -0.01522705 2.83483887 -0.02307129 C4.80832251 -0.03385355 6.78186314 -0.03673302 8.75537109 -0.03222656 C11.7714752 -0.03125315 14.7850435 -0.07291798 17.80078125 -0.1171875 C19.72134887 -0.12239403 21.64192532 -0.1250827 23.5625 -0.125 C24.46158081 -0.14139526 25.36066162 -0.15779053 26.2869873 -0.17468262 C30.85030536 -0.12439272 32.66965186 -0.02829608 36.32617188 2.94335938 C36.97134766 3.77673828 37.61652344 4.61011719 38.28125 5.46875 C38.77625 5.96375 38.77625 5.96375 39.28125 6.46875 C39.36810603 8.03047745 39.38827219 9.59604344 39.37890625 11.16015625 C39.37568359 12.10439453 39.37246094 13.04863281 39.36914062 14.02148438 C39.35657227 15.51131836 39.35657227 15.51131836 39.34375 17.03125 C39.33923828 18.02833984 39.33472656 19.02542969 39.33007812 20.05273438 C39.31825007 22.52479849 39.30176849 24.99674518 39.28125 27.46875 C32.01432672 27.5150455 24.74743512 27.55060493 17.48039436 27.57237434 C14.10618006 27.58282142 10.73206648 27.59699725 7.35791016 27.61962891 C3.48076682 27.64379885 -0.39623277 27.65521511 -4.2734375 27.6640625 C-5.48804657 27.67438507 -6.70265564 27.68470764 -7.95407104 27.69534302 C-9.07508209 27.69549408 -10.19609314 27.69564514 -11.35107422 27.69580078 C-12.34146698 27.700242 -13.33185974 27.70468323 -14.3522644 27.70925903 C-16.71875 27.46875 -16.71875 27.46875 -18.71875 25.46875 C-19.52559487 18.31972915 -19.54173514 11.44062778 -16.08203125 5.01953125 C-11.53414296 -0.15385457 -6.41004237 0.00143601 0 0 Z " fill="#FAFBFC" transform="translate(1072.71875,447.53125)"/>
<path d="M0 0 C0.84445175 -0.0159874 1.6889035 -0.03197479 2.5589447 -0.04844666 C3.4631868 -0.05380936 4.36742889 -0.05917206 5.29907227 -0.06469727 C6.23598404 -0.07372574 7.17289581 -0.08275421 8.13819885 -0.09205627 C10.11765349 -0.10654876 12.09715592 -0.11544302 14.07666016 -0.11914062 C17.10148819 -0.13104844 20.1242833 -0.18025292 23.14868164 -0.23071289 C25.07380191 -0.24017621 26.99893469 -0.24741168 28.92407227 -0.25219727 C29.82629013 -0.27172958 30.728508 -0.2912619 31.6580658 -0.31138611 C36.23313263 -0.27858068 38.05693521 -0.1975139 41.72509766 2.77880859 C42.36954834 3.6129126 43.01399902 4.4470166 43.67797852 5.30639648 C44.17297852 5.80139648 44.17297852 5.80139648 44.67797852 6.30639648 C44.76483455 7.86812393 44.78500071 9.43368993 44.77563477 10.99780273 C44.77241211 11.94204102 44.76918945 12.8862793 44.76586914 13.85913086 C44.75330078 15.34896484 44.75330078 15.34896484 44.74047852 16.86889648 C44.7359668 17.86598633 44.73145508 18.86307617 44.72680664 19.89038086 C44.71497858 22.36244497 44.69849701 24.83439166 44.67797852 27.30639648 C44.0184317 27.31670395 43.35888489 27.32701141 42.67935181 27.33763123 C35.83406362 27.44555028 28.98891097 27.56015987 22.14379883 27.67871094 C19.58686144 27.72210671 17.0298942 27.76377828 14.47290039 27.80371094 C10.80418893 27.86130118 7.13562841 27.92502786 3.46704102 27.98999023 C2.31805328 28.00670273 1.16906555 28.02341522 -0.01473999 28.04063416 C-1.07568878 28.06057938 -2.13663757 28.0805246 -3.22973633 28.10107422 C-4.63538345 28.12439064 -4.63538345 28.12439064 -6.06942749 28.1481781 C-8.3571594 28.16419633 -8.3571594 28.16419633 -10.32202148 29.30639648 C-10.32202148 28.31639648 -10.32202148 27.32639648 -10.32202148 26.30639648 C-10.98202148 26.30639648 -11.64202148 26.30639648 -12.32202148 26.30639648 C-12.43055071 23.43037194 -12.50957298 20.55848817 -12.57202148 17.68139648 C-12.60553711 16.8731543 -12.63905273 16.06491211 -12.67358398 15.23217773 C-12.76252041 9.76258732 -12.07987727 6.57668715 -8.32202148 2.30639648 C-5.47383065 0.57032071 -3.31570743 0.04767831 0 0 Z " fill="#FAFBFC" transform="translate(828.322021484375,447.693603515625)"/>
</svg>
